<svg width="16" height="16" viewBox="0 0 16 16" fill="none" xmlns="http://www.w3.org/2000/svg">
<g id="snowflake 1" clip-path="url(#clip0_8419_70620)">
<path id="Vector" d="M6.66406 2.66797L7.9974 3.33464L9.33073 2.66797" stroke="#35385A" stroke-linecap="round" stroke-linejoin="round"/>
<path id="Vector_2" d="M8 1.33203V5.66536L10 6.81203" stroke="#35385A" stroke-linecap="round" stroke-linejoin="round"/>
<path id="Vector_3" d="M11.9531 4.17773L12.0425 5.66573L13.2865 6.48707" stroke="#35385A" stroke-linecap="round" stroke-linejoin="round"/>
<path id="Vector_4" d="M13.7722 4.66797L10.0195 6.83464L10.0262 9.13997" stroke="#35385A" stroke-linecap="round" stroke-linejoin="round"/>
<path id="Vector_5" d="M13.2865 9.51172L12.0425 10.3331L11.9531 11.8211" stroke="#35385A" stroke-linecap="round" stroke-linejoin="round"/>
<path id="Vector_6" d="M13.7733 11.3346L10.0207 9.16797L8.02734 10.3266" stroke="#35385A" stroke-linecap="round" stroke-linejoin="round"/>
<path id="Vector_7" d="M9.33073 13.3346L7.9974 12.668L6.66406 13.3346" stroke="#35385A" stroke-linecap="round" stroke-linejoin="round"/>
<path id="Vector_8" d="M8 14.6675V10.3342L6 9.1875" stroke="#35385A" stroke-linecap="round" stroke-linejoin="round"/>
<path id="Vector_9" d="M4.04818 11.8211L3.95884 10.3331L2.71484 9.51172" stroke="#35385A" stroke-linecap="round" stroke-linejoin="round"/>
<path id="Vector_10" d="M2.22656 11.3333L5.97923 9.16666L5.97256 6.86133" stroke="#35385A" stroke-linecap="round" stroke-linejoin="round"/>
<path id="Vector_11" d="M2.71484 6.48707L3.95884 5.66573L4.04818 4.17773" stroke="#35385A" stroke-linecap="round" stroke-linejoin="round"/>
<path id="Vector_12" d="M2.22656 4.66797L5.97923 6.83464L7.97256 5.67597" stroke="#35385A" stroke-linecap="round" stroke-linejoin="round"/>
</g>
<defs>
<clipPath id="clip0_8419_70620">
<rect width="16" height="16" fill="white"/>
</clipPath>
</defs>
</svg>
