<svg width="36" height="36" viewBox="0 0 36 36" fill="none" xmlns="http://www.w3.org/2000/svg">
<mask id="mask0_10267_838" style="mask-type:luminance" maskUnits="userSpaceOnUse" x="2" y="2" width="32" height="33">
<rect width="32" height="32" rx="16" transform="matrix(-1 0 0 1 34 2.25781)" fill="white"/>
</mask>
<g mask="url(#mask0_10267_838)">
<rect width="16" height="26.6667" rx="2" transform="matrix(-1 0 0 1 17.2383 12.9248)" fill="#BFCFE3" fill-opacity="0.2"/>
<path fill-rule="evenodd" clip-rule="evenodd" d="M15.3322 11.7812C17.0154 11.7812 18.3798 13.1457 18.3798 14.8289V15.2098H18.6417C18.9179 15.2098 19.1417 15.4337 19.1417 15.7098V21.567C19.1417 21.8431 18.9179 22.067 18.6417 22.067H18.3798V39.2098C18.3798 40.893 17.0154 42.2574 15.3322 42.2574H1.61793C-0.0652219 42.2574 -1.42969 40.893 -1.42969 39.2098V14.8289C-1.42969 13.1457 -0.0652219 11.7812 1.61793 11.7812H15.3322ZM15.0465 12.9241H1.90365C0.693879 12.9241 -0.28683 13.9205 -0.28683 15.1497V38.889C-0.28683 40.1182 0.693879 41.1146 1.90365 41.1146H15.0465C16.2563 41.1146 17.237 40.1182 17.237 38.889V15.1497C17.237 13.9205 16.2563 12.9241 15.0465 12.9241Z" fill="#007AFF"/>
</g>
<rect x="0.75" y="-0.75" width="33.5" height="33.5" rx="16.75" transform="matrix(-1 0 0 1 35.5 2.25781)" stroke="#007AFF" stroke-width="1.5"/>
<path d="M20.668 17.8796C20.668 17.6668 20.759 17.4437 20.9007 17.3036L24.1837 13.9356C24.3456 13.7696 24.5327 13.6865 24.7199 13.6865C25.1651 13.6865 25.4686 14.0031 25.4686 14.4234C25.4686 14.6621 25.3674 14.8438 25.2258 14.9839L24.0775 16.1671L23.0303 17.1583L24.123 17.096H29.0166C29.4921 17.096 29.8108 17.4125 29.8108 17.8796C29.8108 18.3466 29.4921 18.658 29.0166 18.658H24.123L23.0303 18.6009L24.0775 19.5869L25.2258 20.7649C25.3674 20.9102 25.4686 21.0919 25.4686 21.3254C25.4686 21.7457 25.1651 22.0675 24.7199 22.0675C24.5327 22.0675 24.3456 21.9844 24.1888 21.8236L20.9007 18.4504C20.759 18.3103 20.668 18.0872 20.668 17.8796Z" fill="#007AFF"/>
</svg>
