<svg width="20" height="20" viewBox="0 0 20 20" fill="none" xmlns="http://www.w3.org/2000/svg">
<g id="edit-small-2" opacity="0.55">
<path id="vector" d="M9.16634 3.3335H7.33301C5.93288 3.3335 5.23281 3.3335 4.69803 3.60598C4.22763 3.84566 3.84517 4.22811 3.60549 4.69852C3.33301 5.2333 3.33301 5.93336 3.33301 7.3335V12.6668C3.33301 14.067 3.33301 14.767 3.60549 15.3018C3.84517 15.7722 4.22763 16.1547 4.69803 16.3943C5.23281 16.6668 5.93288 16.6668 7.33301 16.6668H12.6663C14.0665 16.6668 14.7665 16.6668 15.3013 16.3943C15.7717 16.1547 16.1542 15.7722 16.3939 15.3018C16.6663 14.767 16.6663 14.067 16.6663 12.6668V10.8335" stroke="#12192B" stroke-width="1.66667" stroke-linecap="round" stroke-linejoin="round"/>
<path id="vector_2" d="M10.833 9.16669V6.66669L14.583 2.91669C15.2734 2.22634 16.3927 2.22634 17.083 2.91669C17.7734 3.60705 17.7734 4.72634 17.083 5.41669L13.333 9.16669H10.833Z" stroke="#12192B" stroke-width="1.66667" stroke-linecap="round" stroke-linejoin="round"/>
</g>
</svg>
