<svg width="24" height="24" viewBox="0 0 24 24" fill="none" xmlns="http://www.w3.org/2000/svg">
<path d="M12.2393 0.000786563C15.2392 -0.0339965 18.1364 1.08603 20.3232 3.12579L16.874 6.55059C15.627 5.36931 13.9624 4.72284 12.2393 4.75079C9.0876 4.75079 6.41263 6.86072 5.45605 9.70391C4.95058 11.1935 4.94958 12.8062 5.45508 14.2957L5.4541 14.2967H5.45605C6.41264 17.1399 9.08762 19.2498 12.2393 19.2498C13.8721 19.2498 15.2684 18.8333 16.3525 18.1033V18.1014C16.9817 17.6869 17.5199 17.1498 17.9346 16.5232C18.3492 15.8967 18.632 15.1928 18.7656 14.4549H12.2393V9.83282H23.6338C23.7733 10.6387 23.8438 11.4555 23.8428 12.2732C23.8427 15.9243 22.5284 19.0122 20.248 21.1004H20.2432L20.2471 21.1033C18.245 22.9363 15.4997 23.9998 12.2393 23.9998C9.99956 23.9997 7.80383 23.3811 5.89746 22.2137C3.99119 21.0463 2.44904 19.3757 1.44336 17.3885V17.3865L1.44238 17.3875C0.596476 15.7158 0.156284 13.8707 0.15625 11.9998C0.15625 10.1287 0.596363 8.28298 1.44238 6.61114H1.44434C2.44999 4.62432 3.99154 2.95417 5.89746 1.78692C7.80383 0.619465 9.99956 0.000887933 12.2393 0.000786563Z" fill="white"/>
</svg>
