<svg width="36" height="36" viewBox="0 0 36 36" fill="none" xmlns="http://www.w3.org/2000/svg">
<rect width="36" height="36" rx="6" fill="#F2F2F7"/>
<path d="M15.7588 25.3945H20.2412V20.5137C20.2412 20.3255 20.1831 20.1733 20.0669 20.0571C19.9562 19.9409 19.804 19.8828 19.6104 19.8828H16.3979C16.2043 19.8828 16.0493 19.9409 15.9331 20.0571C15.8169 20.1733 15.7588 20.3255 15.7588 20.5137V25.3945ZM10.6787 24.9048V18.314L17.502 12.5947C17.834 12.3125 18.166 12.3125 18.498 12.5947L25.3213 18.314V24.9048C25.3213 25.4803 25.1553 25.9285 24.8232 26.2495C24.4967 26.5705 24.043 26.731 23.4619 26.731H12.5464C11.9598 26.731 11.5005 26.5705 11.1685 26.2495C10.842 25.9285 10.6787 25.4803 10.6787 24.9048ZM8.80273 18.1396C8.58138 18.1396 8.40706 18.0732 8.27979 17.9404C8.15251 17.8021 8.08887 17.6471 8.08887 17.4756C8.08887 17.2598 8.17741 17.0799 8.35449 16.936L17.0039 9.67285C17.3138 9.40723 17.6458 9.27441 18 9.27441C18.3542 9.27441 18.6862 9.40723 18.9961 9.67285L27.6455 16.936C27.8226 17.0799 27.9111 17.2598 27.9111 17.4756C27.9111 17.6471 27.8475 17.8021 27.7202 17.9404C27.5985 18.0732 27.4242 18.1396 27.1973 18.1396C27.0811 18.1396 26.9731 18.112 26.8735 18.0566C26.7795 18.0013 26.6909 17.9404 26.6079 17.874L18.2905 10.8931C18.202 10.8156 18.1051 10.7769 18 10.7769C17.8949 10.7769 17.798 10.8156 17.7095 10.8931L9.40039 17.874C9.31185 17.9404 9.21777 18.0013 9.11816 18.0566C9.02409 18.112 8.91895 18.1396 8.80273 18.1396ZM23.4038 13.7319V11.748C23.4038 11.5654 23.4591 11.4215 23.5698 11.3164C23.6805 11.2057 23.8244 11.1504 24.0015 11.1504H24.8896C25.0723 11.1504 25.2161 11.2057 25.3213 11.3164C25.432 11.4215 25.4873 11.5654 25.4873 11.748V15.4917L23.4038 13.7319Z" fill="black"/>
</svg>
