<svg width="10" height="14" viewBox="0 0 10 14" fill="none" xmlns="http://www.w3.org/2000/svg">
<path d="M7.12274 3.07382L5.00001 0L2.87728 3.07382C1.80228 4.62824 0 7.49618 0 9.22971C0 11.8588 2.24318 14 5.00001 14C7.75683 14 10 11.8588 10 9.22971C10 7.49618 8.19774 4.62824 7.12274 3.07382ZM4.03182 3.72853L5.00001 2.32853L5.96819 3.72853C6.13935 3.97173 6.30603 4.21741 6.46816 4.46548C7.20328 5.5902 6.34365 7 5.00001 7C3.65636 7 2.79673 5.5902 3.53185 4.46548C3.69399 4.21741 3.86067 3.97173 4.03182 3.72853Z" fill="#898BA9" fill-opacity="0.3"/>
</svg>
