<svg width="34" height="20" viewBox="0 0 34 20" fill="none" xmlns="http://www.w3.org/2000/svg">
<g id="accor-logo 1" clip-path="url(#clip0_9118_4565)">
<g id="Clip path group">
<mask id="mask0_9118_4565" style="mask-type:luminance" maskUnits="userSpaceOnUse" x="0" y="0" width="34" height="20">
<g id="clip0_509_2715">
<path id="Vector" d="M33.8333 0H0V20H33.8333V0Z" fill="white"/>
</g>
</mask>
<g mask="url(#mask0_9118_4565)">
<g id="Group">
<path id="Vector_2" d="M18.8372 19.6912H14.1893L10.7732 12.6701C9.72835 13.2298 8.93503 14.2037 8.1064 15.2206C7.4567 16.0179 6.78566 16.8419 5.9547 17.5132C4.98981 18.2919 3.86398 18.987 2.45927 19.457C1.8239 19.6679 0.741382 19.9458 0.334899 19.9834C0.163975 20.0001 0.0463619 19.9934 0.0197071 19.9338C0.000382497 19.8866 0.0463619 19.8505 0.228947 19.7653L0.392206 19.692C0.725723 19.5453 1.38376 19.2547 1.8239 18.9516C2.49292 18.4935 2.87309 17.9953 2.90407 17.6128C2.87042 17.4946 2.79746 17.3496 2.71083 17.1754C2.32733 16.409 1.66064 15.0763 2.75014 12.9596C2.92481 12.6216 3.10429 12.2862 3.28857 11.9534C3.54112 11.4919 3.76301 11.0871 3.94094 10.6813C4.28279 9.90764 4.52335 8.8138 4.60731 8.00451C4.61231 7.95719 4.62198 7.95953 4.64829 7.98551C5.30033 8.63588 7.82387 11.1964 7.45803 13.7449C8.29764 13.4271 9.75333 12.4612 10.4244 11.9461C10.585 11.8231 10.7329 11.6988 10.8742 11.5802C11.3573 11.1744 11.7638 10.8329 12.3442 10.8239C12.724 10.8172 12.9072 10.9159 13.0918 11.0155C13.2338 11.0921 13.3767 11.1687 13.6096 11.1987C13.7419 11.2154 13.9394 11.1891 14.0401 11.1417C14.0811 11.1228 14.0714 11.0778 14.0091 11.0635C13.7052 10.9922 13.4976 10.8489 13.2904 10.706C13.0005 10.506 12.7113 10.3061 12.1612 10.3061C11.5259 10.3061 10.9881 10.7393 10.554 11.0888C10.4094 11.2051 10.2764 11.312 10.1551 11.391L7.76855 6.48586C6.77033 4.43343 7.07553 2.94278 9.26488 0.00976562L18.8372 19.692V19.6912ZM26.3479 19.694H23.4609C22.2437 19.694 21.6303 19.4303 21.1852 18.856C20.7087 18.2439 20.7087 17.3113 20.7087 16.426V0.0167624H24.4207V16.9525C24.4207 18.2932 24.5724 19.2521 26.3479 19.6344V19.6932V19.694ZM30.9402 19.694H33.8272V19.6345C32.0516 19.2525 31.9 18.2935 31.9 16.9528V0.0167624H28.1883V16.426C28.1883 17.3113 28.1883 18.2439 28.6644 18.856C29.1096 19.4303 29.7229 19.694 30.9402 19.694Z" fill="black"/>
</g>
</g>
</g>
</g>
<defs>
<clipPath id="clip0_9118_4565">
<rect width="33.8333" height="20" fill="white"/>
</clipPath>
</defs>
</svg>
