<svg width="20" height="20" viewBox="0 0 20 20" fill="none" xmlns="http://www.w3.org/2000/svg">
<path fill-rule="evenodd" clip-rule="evenodd" d="M17.5 9.99999C17.5 10.1658 17.4342 10.3247 17.3169 10.4419L13.5669 14.1919C13.3229 14.436 12.9271 14.436 12.6831 14.1919C12.439 13.9479 12.439 13.5521 12.6831 13.3081L15.3661 10.625L7.5 10.625C7.15482 10.625 6.875 10.3452 6.875 9.99999C6.875 9.65481 7.15482 9.37499 7.5 9.37499L15.3661 9.37499L12.6831 6.69194C12.439 6.44787 12.439 6.05214 12.6831 5.80806C12.9271 5.56398 13.3229 5.56398 13.5669 5.80806L17.3169 9.55805C17.4342 9.67526 17.5 9.83423 17.5 9.99999Z" fill="#666D7F"/>
<path fill-rule="evenodd" clip-rule="evenodd" d="M10 3.125C10 3.47018 9.72018 3.75 9.375 3.75L5.625 3.75C4.58947 3.75 3.75 4.58947 3.75 5.625L3.75 14.375C3.75 15.4105 4.58947 16.25 5.625 16.25H9.375C9.72018 16.25 10 16.5298 10 16.875C10 17.2202 9.72018 17.5 9.375 17.5H5.625C3.89911 17.5 2.5 16.1009 2.5 14.375L2.5 5.625C2.5 3.89911 3.89911 2.5 5.625 2.5L9.375 2.5C9.72018 2.5 10 2.77982 10 3.125Z" fill="#666D7F"/>
</svg>
