<svg width="28" height="28" viewBox="0 0 28 28" fill="none" xmlns="http://www.w3.org/2000/svg">
<rect x="27.5172" y="27.5172" width="27.0345" height="27.0345" rx="13.5172" transform="rotate(-180 27.5172 27.5172)" stroke="black" stroke-opacity="0.05" stroke-width="0.965517"/>
<path d="M12.2968 12.7632C13.5611 13.4074 14.5894 14.4358 15.2337 15.7001C15.9248 17.0565 15.9641 18.8087 15.9663 22.1641C15.0487 22.3844 14.1011 22.4479 13.1662 22.3554C13.1655 20.6629 13.158 19.5026 13.084 18.5968C13.0066 17.6498 12.8703 17.2295 12.7388 16.9713C12.363 16.234 11.7636 15.6346 11.0262 15.2588C10.768 15.1273 10.347 14.9902 9.40002 14.9128C8.49374 14.8388 7.33259 14.8314 5.63868 14.8307C5.54613 13.8961 5.61146 12.9492 5.83134 12.0319C9.18741 12.0341 10.9402 12.0724 12.2968 12.7632ZM22.3586 13.1672C22.4511 14.1023 22.3862 15.0495 22.1659 15.9673C18.8096 15.9651 17.0571 15.9273 15.7005 15.236C14.436 14.5917 13.4079 13.5636 12.7636 12.2992C12.0722 10.9423 12.0338 9.18936 12.0316 5.83163C12.9493 5.6114 13.8968 5.54786 14.8318 5.64036C14.8325 7.33458 14.8399 8.49533 14.9139 9.40169C14.9913 10.349 15.1269 10.7697 15.2585 11.0279C15.6343 11.7655 16.2341 12.3653 16.9717 12.7411C17.23 12.8727 17.6505 13.0083 18.5979 13.0857C19.5042 13.1597 20.6647 13.1665 22.3586 13.1672Z" fill="black"/>
</svg>
