<svg width="12" height="14" viewBox="0 0 12 14" fill="none" xmlns="http://www.w3.org/2000/svg">
<path fill-rule="evenodd" clip-rule="evenodd" d="M5.20943 0.569698C5.7226 0.398642 6.2774 0.398642 6.79057 0.569698L10.7464 1.88831C11.495 2.13786 12 2.83844 12 3.62757V6.94145C12 8.76637 11.211 10.1133 10.0942 11.173C8.99613 12.2149 7.56029 12.9982 6.2374 13.7119C6.08923 13.7918 5.91077 13.7918 5.7626 13.7119C4.43971 12.9982 3.00387 12.2149 1.90584 11.173C0.789005 10.1133 0 8.76637 0 6.94145V3.62757C0 2.83844 0.504955 2.13786 1.25358 1.88831L5.20943 0.569698ZM7.5 5.83333C7.5 6.48644 7.0826 7.04206 6.5 7.24798V8.83333C6.5 9.10947 6.27614 9.33333 6 9.33333C5.72386 9.33333 5.5 9.10947 5.5 8.83333V7.24798C4.9174 7.04206 4.5 6.48644 4.5 5.83333C4.5 5.00491 5.17157 4.33333 6 4.33333C6.82843 4.33333 7.5 5.00491 7.5 5.83333Z" fill="white"/>
</svg>
