<svg width="16" height="16" viewBox="0 0 16 16" fill="none" xmlns="http://www.w3.org/2000/svg">
<g id="device-tv 1" clip-path="url(#clip0_8419_70644)">
<path id="Vector" d="M2 6.0013C2 5.64768 2.14048 5.30854 2.39052 5.05849C2.64057 4.80844 2.97971 4.66797 3.33333 4.66797H12.6667C13.0203 4.66797 13.3594 4.80844 13.6095 5.05849C13.8595 5.30854 14 5.64768 14 6.0013V12.0013C14 12.3549 13.8595 12.6941 13.6095 12.9441C13.3594 13.1942 13.0203 13.3346 12.6667 13.3346H3.33333C2.97971 13.3346 2.64057 13.1942 2.39052 12.9441C2.14048 12.6941 2 12.3549 2 12.0013V6.0013Z" stroke="#35385A" stroke-linecap="round" stroke-linejoin="round"/>
<path id="Vector_2" d="M10.6654 2L7.9987 4.66667L5.33203 2" stroke="#35385A" stroke-linecap="round" stroke-linejoin="round"/>
</g>
<defs>
<clipPath id="clip0_8419_70644">
<rect width="16" height="16" fill="white"/>
</clipPath>
</defs>
</svg>
