<svg width="20" height="20" viewBox="0 0 20 20" fill="none" xmlns="http://www.w3.org/2000/svg">
<path d="M16.0399 3.95977C17.5857 5.50551 18.5417 7.64092 18.5417 9.99964C18.5417 12.3584 17.5857 14.4938 16.0399 16.0395M13.2409 6.75925C14.0704 7.58867 14.5834 8.7345 14.5834 10.0002C14.5834 11.2658 14.0704 12.4116 13.2409 13.2411M3.12504 6.45814H4.41541C4.79386 6.45814 5.16104 6.32934 5.45656 6.09292L8.85446 3.3746C9.4001 2.93809 10.2084 3.32657 10.2084 4.02533V15.9743C10.2084 16.673 9.4001 17.0615 8.85446 16.625L5.45656 13.9067C5.16104 13.6703 4.79386 13.5415 4.41541 13.5415H3.12504C2.20457 13.5415 1.45837 12.7953 1.45837 11.8748V8.12481C1.45837 7.20433 2.20457 6.45814 3.12504 6.45814Z" stroke="white" stroke-width="1.5" stroke-linecap="round" stroke-linejoin="round"/>
</svg>
