<svg width="26" height="26" viewBox="0 0 26 26" fill="none" xmlns="http://www.w3.org/2000/svg">
<path d="M13 0.901193C12.3986 0.896241 11.7911 0.913999 11.185 0.960275L11.185 2.11001C11.185 4.6254 11.1813 6.69485 11.4007 8.32662C11.6271 10.0106 12.1206 11.4979 13.3114 12.6886L13.5383 12.9037C14.689 13.94 16.0947 14.3871 17.6734 14.5994C19.3052 14.8187 21.3746 14.815 23.89 14.815H25.0191C25.076 14.2096 25.1018 13.6024 25.1 13.0012C25.1018 12.3993 25.0762 11.7911 25.0191 11.185H23.89C21.272 11.185 19.491 11.1812 18.1573 11.0019C16.9561 10.8404 16.3593 10.5633 15.9565 10.1966L15.8785 10.1215C15.4746 9.71757 15.1705 9.12417 14.9982 7.84274C14.8189 6.50907 14.815 4.72794 14.815 2.11001V0.960866C14.2089 0.914393 13.6014 0.896241 13 0.901193Z" fill="white"/>
<path d="M0.980961 11.1846C0.923949 11.7905 0.898244 12.3984 0.900019 13.0002C0.898247 13.6016 0.924019 14.209 0.980961 14.8146H2.11002C4.72808 14.8146 6.50906 14.8184 7.84275 14.9977C9.04392 15.1592 9.6408 15.4362 10.0436 15.803L10.1215 15.8781C10.5254 16.282 10.8296 16.8755 11.0019 18.1568C11.1811 19.4905 11.185 21.2717 11.185 23.8896L11.185 25.0387C11.7911 25.085 12.3986 25.1033 13 25.0984C13.6015 25.1033 14.209 25.085 14.815 25.0387L14.815 23.8896C14.815 21.3742 14.8187 19.3047 14.5994 17.673C14.373 15.9891 13.8794 14.5017 12.6887 13.3109L12.4618 13.0959C11.311 12.0596 9.90532 11.6125 8.32663 11.4002C6.69483 11.1808 4.62551 11.1846 2.11002 11.1846L0.980961 11.1846Z" fill="white"/>
</svg>
