<svg width="20" height="20" viewBox="0 0 20 20" fill="none" xmlns="http://www.w3.org/2000/svg">
<path d="M14.1667 9.58366C14.1667 10.1542 14.0521 10.6979 13.8445 11.193L6.39486 3.74335C7.11628 2.50178 8.46068 1.66699 10.0001 1.66699C12.3012 1.66699 14.1667 3.53247 14.1667 5.83366V9.58366Z" fill="#FF3737"/>
<path d="M2.94194 2.05838C2.69786 1.81431 2.30214 1.81431 2.05806 2.05838C1.81398 2.30246 1.81398 2.69819 2.05806 2.94227L5.83333 6.71754V9.58366C5.83333 11.8848 7.69881 13.7503 10 13.7503C10.8171 13.7503 11.5801 13.5146 12.2237 13.1079L13.274 14.1582C12.3516 14.8197 11.2217 15.2086 9.99992 15.2086C7.69428 15.2086 5.71127 13.8213 4.84269 11.8334C4.7045 11.5171 4.33605 11.3727 4.01974 11.5109C3.70344 11.6491 3.55905 12.0175 3.69725 12.3338C4.67836 14.5794 6.82545 16.2008 9.37492 16.4306V17.7086C9.37492 18.0538 9.65474 18.3336 9.99992 18.3336C10.3451 18.3336 10.6249 18.0538 10.6249 17.7086V16.4306C11.9499 16.3111 13.167 15.8154 14.1676 15.0518L17.0581 17.9423C17.3021 18.1863 17.6979 18.1863 17.9419 17.9423C18.186 17.6982 18.186 17.3025 17.9419 17.0584L2.94194 2.05838Z" fill="#FF3737"/>
</svg>
