<svg width="20" height="20" viewBox="0 0 20 20" fill="none" xmlns="http://www.w3.org/2000/svg">
<path fill-rule="evenodd" clip-rule="evenodd" d="M17.3169 3.56694C17.561 3.32286 17.561 2.92714 17.3169 2.68306C17.0729 2.43898 16.6771 2.43898 16.4331 2.68306L14.1667 4.94945V4.02536C14.1667 2.80254 12.7522 2.1227 11.7973 2.88659L8.39942 5.60491C8.21472 5.75267 7.98523 5.83317 7.7487 5.83317H6.45833C5.19268 5.83317 4.16667 6.85919 4.16667 8.12484V11.8748C4.16667 12.7084 4.61169 13.438 5.2771 13.839L2.68306 16.4331C2.43898 16.6771 2.43898 17.0729 2.68306 17.3169C2.92714 17.561 3.32286 17.561 3.56694 17.3169L17.3169 3.56694ZM6.22569 12.8904L12.9167 6.19945V4.02536C12.9167 3.85067 12.7146 3.75355 12.5782 3.86268L9.18029 6.581C8.77395 6.90607 8.26907 7.08317 7.7487 7.08317H6.45833C5.88304 7.08317 5.41667 7.54954 5.41667 8.12484V11.8748C5.41667 12.3702 5.76239 12.7847 6.22569 12.8904Z" fill="#FF3737"/>
<path d="M12.5782 16.137L9.20871 13.4414L8.31575 14.3344C8.34452 14.353 8.37245 14.3732 8.39942 14.3948L11.7973 17.1131C12.7522 17.877 14.1667 17.1971 14.1667 15.9743V8.48346L12.9167 9.73346V15.9743C12.9167 16.149 12.7146 16.2461 12.5782 16.137Z" fill="#FF3737"/>
</svg>
