<svg width="20" height="20" viewBox="0 0 20 20" fill="none" xmlns="http://www.w3.org/2000/svg">
<path d="M5.83335 5.83366C5.83335 3.53247 7.69883 1.66699 10 1.66699C12.3012 1.66699 14.1667 3.53247 14.1667 5.83366V9.58366C14.1667 11.8848 12.3012 13.7503 10 13.7503C7.69883 13.7503 5.83335 11.8848 5.83335 9.58366V5.83366Z" fill="white"/>
<path d="M4.84271 11.8334C4.70452 11.5171 4.33607 11.3727 4.01976 11.5109C3.70346 11.6491 3.55907 12.0175 3.69727 12.3338C4.67838 14.5794 6.82547 16.2008 9.37494 16.4306V17.7086C9.37494 18.0538 9.65476 18.3336 9.99994 18.3336C10.3451 18.3336 10.6249 18.0538 10.6249 17.7086V16.4306C13.1744 16.2008 15.3215 14.5794 16.3026 12.3338C16.4408 12.0175 16.2964 11.6491 15.9801 11.5109C15.6638 11.3727 15.2954 11.5171 15.1572 11.8334C14.2886 13.8213 12.3056 15.2086 9.99994 15.2086C7.6943 15.2086 5.71129 13.8213 4.84271 11.8334Z" fill="white"/>
</svg>
