<svg width="18" height="18" viewBox="0 0 18 18" fill="none" xmlns="http://www.w3.org/2000/svg">
<path d="M0.93335 6.79961C0.93335 5.58458 1.91832 4.59961 3.13335 4.59961C4.34838 4.59961 5.33335 5.58458 5.33335 6.79961V11.1996C5.33335 12.4146 4.34838 13.3996 3.13335 13.3996C1.91832 13.3996 0.93335 12.4146 0.93335 11.1996V6.79961Z" fill="#D9D9D9"/>
<path d="M12.6667 8.2664C12.6667 7.05138 13.6517 6.06641 14.8667 6.06641C16.0818 6.06641 17.0667 7.05138 17.0667 8.26641V10.4664C17.0667 11.6814 16.0818 12.6664 14.8667 12.6664C13.6517 12.6664 12.6667 11.6814 12.6667 10.4664V8.2664Z" fill="#D9D9D9"/>
<path d="M6.80005 3.86699C6.80005 2.65197 7.78502 1.66699 9.00005 1.66699C10.2151 1.66699 11.2 2.65197 11.2 3.86699V14.1337C11.2 15.3487 10.2151 16.3337 9.00005 16.3337C7.78502 16.3337 6.80005 15.3487 6.80005 14.1337V3.86699Z" fill="#D9D9D9"/>
</svg>
