<svg width="16" height="16" viewBox="0 0 16 16" fill="none" xmlns="http://www.w3.org/2000/svg">
<g id="volume-off 1" clip-path="url(#clip0_8419_70650)">
<path id="Vector" d="M10 5.33203C10.4989 5.70619 10.8828 6.21279 11.1081 6.79426C11.3335 7.37573 11.3912 8.00874 11.2747 8.62136M10.3567 10.356C10.2452 10.4674 10.1261 10.5708 10 10.6654" stroke="#35385A" stroke-linecap="round" stroke-linejoin="round"/>
<path id="Vector_2" d="M11.8008 3.33203C12.8707 4.19672 13.6111 5.40284 13.8978 6.74833C14.1844 8.09382 14 9.49696 13.3754 10.7227M12.2581 12.2554C12.1128 12.3997 11.9601 12.5366 11.8008 12.6654" stroke="#35385A" stroke-linecap="round" stroke-linejoin="round"/>
<path id="Vector_3" d="M6.046 3.36948L6.33333 3.00014C6.3916 2.88696 6.48843 2.79836 6.60633 2.75034C6.72422 2.70232 6.8554 2.69805 6.97617 2.73831C7.09693 2.77856 7.19932 2.86069 7.26482 2.96984C7.33033 3.07899 7.35463 3.20797 7.33333 3.33348V4.66681M7.33333 7.33348V12.6668C7.35463 12.7923 7.33033 12.9213 7.26482 13.0305C7.19932 13.1396 7.09693 13.2217 6.97617 13.262C6.8554 13.3022 6.72422 13.298 6.60633 13.2499C6.48843 13.2019 6.3916 13.1133 6.33333 13.0001L4 10.0001H2.66667C2.48986 10.0001 2.32029 9.92991 2.19526 9.80488C2.07024 9.67986 2 9.51029 2 9.33348V6.66681C2 6.49 2.07024 6.32043 2.19526 6.19541C2.32029 6.07038 2.48986 6.00014 2.66667 6.00014H4L4.86267 4.89081" stroke="#35385A" stroke-linecap="round" stroke-linejoin="round"/>
<path id="Vector_4" d="M2 2L14 14" stroke="#35385A" stroke-linecap="round" stroke-linejoin="round"/>
</g>
<defs>
<clipPath id="clip0_8419_70650">
<rect width="16" height="16" fill="white"/>
</clipPath>
</defs>
</svg>
